<?xml version="1.0" standalone="no"?><!DOCTYPE svg PUBLIC "-//W3C//DTD SVG 1.1//EN" "http://www.w3.org/Graphics/SVG/1.1/DTD/svg11.dtd"><svg t="1567219105749" class="icon" viewBox="0 0 1620 1024" version="1.1" xmlns="http://www.w3.org/2000/svg" p-id="5307" xmlns:xlink="http://www.w3.org/1999/xlink" width="316.40625" height="200"><defs><style type="text/css"></style></defs><path d="M390.37934991 578.88333705h7.52298433c2.04767621 0.04451461 3.65020529 1.69155864 3.65020564 3.73923486 0 2.04767621-1.60252907 3.73923485-3.65020564 3.73923487h-7.52298434v7.52298431c-0.04451461 2.0031616-1.69155864 3.65020529-3.7392345 3.65020529-0.9793235 0-1.91413205-0.35611756-2.62636751-1.02383812-0.71223516-0.66772054-1.11286767-1.60252907-1.11286735-2.58185257v-7.52298433h-7.52298431c-2.04767621-0.04451461-3.65020529-1.69155864-3.65020565-3.73923484 0-2.04767621 1.60252907-3.73923485 3.65020565-3.73923488h7.52298431V571.40486734c0.04451461-2.04767621 1.69155864-3.65020529 3.73923486-3.6502053 2.04767621 0 3.73923485 1.60252907 3.7392345 3.65020529v7.47846971zM881.33197886 549.14751733v-7.52298432c0-0.9793235-0.40063218-1.91413205-1.11286734-2.58185257s-1.64704404-1.06835271-2.62636753-1.0238381c-2.0031616 0-3.69472027 1.60252907-3.73923486 3.65020528V549.14751733h-7.52298432c-0.9793235 0-1.91413205 0.40063218-2.58185257 1.11286769s-1.06835271 1.64704404-1.02383811 2.62636718c0 2.0031616 1.64704404 3.73923485 3.65020563 3.73923487h7.52298436v7.52298431c0 2.04767621 1.64704404 3.65020529 3.73923447 3.65020528 2.04767621 0 3.69472027-1.60252907 3.73923486-3.65020528v-7.52298431h7.52298432c2.04767621 0 3.65020529-1.64704404 3.65020564-3.73923488 0-2.0031616-1.60252907-3.69472027-3.65020564-3.73923486h-7.56749892z m-270.20423035 122.72702868h-187.27334403c-1.95864664 0-3.87277904-0.80126471-5.25273435-2.18122039-1.37995567-1.37995567-2.18122038-3.29408772-2.1812204-5.25273473 0-4.09535244 3.38311729-7.43395511 7.43395475-7.43395475h33.74214293c-2.62636717-4.49598461-3.96180825-9.61517514-3.96180826-14.82339523V426.37597407c0-7.87910189 3.16054389-15.44660082 8.72488123-21.05545311 5.56433767-5.56433767 13.17635122-8.68036661 21.0554531-8.68036661h22.30186496v-7.47846972c0-7.87910189 3.16054389-15.44660082 8.72488121-21.05545309a29.89607266 29.89607266 0 0 1 21.05545311-8.68036663h178.45943323c7.87910189 0 15.49111578 3.11602893 21.05545311 8.68036663 5.60885229 5.56433767 8.72488121 13.13183662 8.72488122 21.05545309v215.80726684c0 5.38627889-1.42447028 10.46095447-3.96180824 14.82339526h41.13158306c4.09535244 0 7.43395511 3.29408772 7.43395509 7.43395475 0 4.09535244-3.29408772 7.43395511-7.43395509 7.4339551H691.65484104v7.47846971c0 5.38627889-1.42447028 10.46095447-3.96180825 14.82339492h4.00632321c4.09535244 0 7.43395511 3.29408772 7.43395475 7.43395509 0 4.09535244-3.38311729 7.43395511-7.43395475 7.43395473h-39.12842146c3.38311729 5.69788151 2.67088214 13.17635122-2.27024997 18.11748298-2.80442596 2.80442596-6.58817578 4.36244079-10.50546906 4.36244079-3.96180825 0-7.74555771-1.55801448-10.50546944-4.36244079l-18.16199756-18.072968z m27.19848174-14.86790987h23.63730603c8.19070485 0 14.82339524-6.6326904 14.8233949-14.91242481V426.0198565c0-8.05716068-6.41011701-14.51179227-14.37824811-14.51179229H482.83638252c-7.9236165 0-14.37824811 6.49914622-14.37824812 14.5117923v216.07435482c0 8.23521946 6.677205 14.91242447 14.82339489 14.91242481h112.93379475l-3.82826444-3.82826442c-3.78374947-3.73923485-5.25273471-9.25905757-3.87277866-14.3782481l-7.03332294-7.03332259c-21.85671782 16.29238014-52.61637563 12.95377782-70.46677024-7.7010431-17.85039496-20.61030632-16.7375273-51.50350833 2.492823-70.82288816 19.31937986-19.36389447 50.30161141-20.52127675 70.95643235-2.62636718 20.65482092 17.89490957 23.99342325 48.74359661 7.56749892 70.60031443l7.03332259 7.03332256c5.11919054-1.37995567 10.63901324 0.08902957 14.37824845 3.87277904l24.88371719 24.88371753z m53.32861078-37.21428942h22.39089454c8.19070485-0.04451461 14.82339524-6.677205 14.82339491-14.86790986V389.20619923c0-8.23521946-6.6326904-14.86790985-14.82339491-14.86790985H535.36372857c-8.19070485 0.04451461-14.77888064 6.677205-14.82339489 14.86790985v7.43395512h141.28965843c7.87910189 0 15.49111578 3.11602893 21.05545311 8.6803666 5.60885229 5.56433767 8.72488121 13.13183662 8.7248812 21.05545311v193.41637267z m-262.19158426-273.36477424H440.54741716c3.11602893 0 5.65336689 2.49282335 5.6533669 5.56433768S443.66344608 357.5562475 440.54741716 357.5562475h-11.08416039v11.08416037c0 3.11602893-2.49282335 5.65336689-5.56433732 5.65336691-1.46898525 0-2.89345553-0.62320592-3.96180861-1.69155865-1.06835271-1.06835271-1.64704404-2.49282335-1.60252907-3.96180826V357.60076211h-11.08416039c-1.51349984 0-2.93797014-0.57869096-4.00632286-1.60252908-1.06835271-1.06835271-1.64704404-2.49282335-1.64704403-3.96180824 0-3.07151433 2.53733797-5.56433767 5.65336689-5.56433769h11.08416039v-11.12867501c0-3.11602893 2.49282335-5.65336689 5.56433768-5.65336688s5.56433767 2.53733797 5.56433732 5.65336688v11.08416039zM342.03638549 664.44059089c0-4.09535244 3.38311729-7.43395511 7.4339551-7.43395475h44.69275915c4.09535244 0 7.43395511 3.29408772 7.43395474 7.43395475 0 4.09535244-3.38311729 7.43395511-7.43395474 7.43395511h-44.69275915c-1.95864664 0-3.87277904-0.80126471-5.2527347-2.18122038-1.42447028-1.37995567-2.18122038-3.29408772-2.18122041-5.25273473z m234.59247033-48.07587607c14.51179227-14.51179227 14.51179227-38.06006873 0-52.61637564-14.51179227-14.51179227-38.06006873-14.51179227-52.61637563 0-14.51179227 14.51179227-14.51179227 38.06006873 0 52.61637564 14.5563069 14.51179227 38.10458335 14.51179227 52.61637563 0zM498.23846874 441.28839852c0-4.09535244 3.33860267-7.43395511 7.43395473-7.43395474h81.81801935c4.09535244 0 7.43395511 3.33860267 7.43395476 7.43395474s-3.33860267 7.43395511-7.43395476 7.43395512H505.67242347c-1.95864664 0-3.87277904-0.75674976-5.25273435-2.1812204-1.37995567-1.37995567-2.18122038-3.29408772-2.18122038-5.25273472z m0 37.16977482c0-4.09535244 3.29408772-7.43395511 7.38944013-7.43395475h119.12133799c4.09535244 0 7.38944013 3.29408772 7.38944015 7.43395475 0 4.09535244-3.29408772 7.43395511-7.38944015 7.43395511H505.62790887c-1.95864664 0-3.87277904-0.80126471-5.25273471-2.1812204-1.37995567-1.37995567-2.1367058-3.29408772-2.13670542-5.25273471z m0 37.21428943c0-4.09535244 3.33860267-7.43395511 7.43395473-7.4339551h52.0821993c4.09535244 0 7.43395511 3.29408772 7.4339551 7.4339551 0 4.09535244-3.33860267 7.43395511-7.4339551 7.4339551h-52.0821993c-1.95864664 0-3.87277904-0.75674976-5.25273435-2.18122039-1.37995567-1.37995567-2.18122038-3.29408772-2.18122038-5.25273471z m-141.3341734-44.64824418c-7.96813146 0-15.35757162-4.27341122-19.31937985-11.17318997-4.00632286-6.89977838-4.00632286-15.40208622 0-22.3018646s11.35124839-11.1731896 19.31937985-11.17318996c12.33057189 0 22.30186495 9.97129273 22.30186497 22.30186496 0.04451461 12.3750865-9.97129273 22.34637958-22.30186497 22.34637957z m0-11.17318997c4.00632286 0 7.65652851-2.1367058 9.65969011-5.56433731 2.0031616-3.4721465 2.0031616-7.70104311 0-11.17318996-2.0031616-3.4721465-5.69788151-5.56433767-9.65969011-5.56433733-6.14302864 0-11.1731896 4.98564636-11.17318961 11.17318962 0.04451461 6.14302864 5.03016097 11.12867498 11.17318961 11.12867498z m461.21680923-33.47505456c-7.96813146 0-15.35757162-4.27341122-19.31937985-11.17318961-4.00632286-6.89977838-4.00632286-15.40208622 0-22.30186495s11.35124839-11.1731896 19.31937985-11.17318962c12.33057189 0 22.30186495 9.97129273 22.30186495 22.3018646 0 12.3750865-9.97129273 22.34637958-22.30186495 22.34637958z m0-11.12867499c4.00632286 0 7.65652851-2.1367058 9.65969008-5.56433769 2.0031616-3.4721465 2.0031616-7.70104311 0-11.17318959-2.0031616-3.4721465-5.69788151-5.56433767-9.65969008-5.5643377-6.14302864 0-11.1731896 4.98564636-11.1731896 11.17318997 0 6.09851404 5.03016097 11.12867498 11.1731896 11.12867501z m0 0" fill="#7DD6D0" p-id="5308"></path></svg>